<?xml version="1.0" encoding="utf-8"?>
<!-- Generator: Adobe Illustrator 16.0.0, SVG Export Plug-In . SVG Version: 6.00 Build 0)  -->
<!DOCTYPE svg PUBLIC "-//W3C//DTD SVG 1.1//EN" "http://www.w3.org/Graphics/SVG/1.1/DTD/svg11.dtd">
<svg version="1.1" id="Слой_1" xmlns="http://www.w3.org/2000/svg" xmlns:xlink="http://www.w3.org/1999/xlink" x="0px" y="0px"
	 width="313.699px" height="554.354px" viewBox="0 0 313.699 554.354" enable-background="new 0 0 313.699 554.354"
	 xml:space="preserve">
<g>
	<path fill="#B17F4A" d="M16.206,124.471c0,24.69,15.742,47.043,41.193,63.224s60.613,26.188,99.451,26.188
		c77.675,0,140.643-40.031,140.643-89.412S234.525,35.059,156.85,35.059C79.174,35.059,16.206,75.09,16.206,124.471z"/>
	<path fill="#B17F4A" d="M122.998,44.471c-0.002,0.001,35.135-6.085,55.294-44.471c-8.349,16.124-17.647,46.824-42.353,52.706
		c-24.706,5.882,35.293-14.32,50.588-33.882c-10.271,20-15.613,43.596-34.436,45.949"/>
	
		<ellipse transform="matrix(0.9913 0.1318 -0.1318 0.9913 15.5598 -1.9969)" fill="#B17F4A" cx="22.868" cy="116.568" rx="22.479" ry="38.811"/>
	
		<ellipse transform="matrix(0.9913 0.1318 -0.1318 0.9913 15.5625 -1.997)" fill="#4F391D" cx="22.868" cy="116.568" rx="15.16" ry="26.175"/>
	<path fill="#B17F4A" d="M43.148,118.353c-0.271-0.992-15.542,0.667-29.542-4c0,0,23.148,14.872,29.241,13.436
		s-19.907,5.564-19.907,5.564s26,7,26,0"/>
	
		<ellipse transform="matrix(-0.9913 0.1318 -0.1318 -0.9913 594.4856 193.7961)" fill="#B17F4A" cx="290.831" cy="116.568" rx="22.479" ry="38.811"/>
	
		<ellipse transform="matrix(-0.9913 0.1318 -0.1318 -0.9913 594.489 193.7896)" fill="#4F391D" cx="290.832" cy="116.568" rx="15.161" ry="26.175"/>
	<path fill="#B17F4A" d="M270.551,113.02c0.629-0.814,9.289-3.723,23.289-8.39c0,0-16.895,19.262-22.988,17.826
		c-6.092-1.436,18.738-0.826,18.738-0.826s-24.83,13.39-24.83,6.39c0,0,15.33,2.11,23.08-0.64c-5.25,9.5-16.618,7.029-17.5,7
		C262.84,134.13,268.512,115.659,270.551,113.02z"/>
	<circle fill="#FFFFFF" cx="99.91" cy="108.073" r="35.029"/>
	<circle fill="#4F391D" cx="99.91" cy="108.073" r="13.393"/>
	<circle fill="#FFFFFF" cx="111.243" cy="101.377" r="6.696"/>
	<circle fill="#FFFFFF" cx="203.911" cy="108.073" r="35.029"/>
	<circle fill="#4F391D" cx="203.911" cy="108.073" r="13.393"/>
	<circle fill="#FFFFFF" cx="215.244" cy="101.377" r="6.696"/>
	
		<radialGradient id="SVGID_1_" cx="-45.0093" cy="445.688" r="74.0985" gradientTransform="matrix(-0.9999 0.0166 0.0378 2.2761 90.0043 -567.9803)" gradientUnits="userSpaceOnUse">
		<stop  offset="0.0049" style="stop-color:#856137"/>
		<stop  offset="0.6995" style="stop-color:#856137"/>
		<stop  offset="1" style="stop-color:#B17F4A"/>
	</radialGradient>
	<path fill="url(#SVGID_1_)" d="M61.433,179.023c0,0,54.71,27.64,48.42,79.33c-0.94,7.71-4.92,8.24-11.94,10.92
		c-8.4,3.2-33.961,8.54-43.273,55.08c-5.61,28.04-3.962,72,7.357,114S52.64,554.354,152.96,554.354h7.081
		c100.32,0,79.644-74.001,90.963-116.001c11.32-42,10.968-85.96,5.357-114c-9.311-46.54-32.873-54.88-41.272-58.08
		c-7.021-2.68-11-0.21-11.94-7.92c-6.289-51.69,48.42-79.33,48.42-79.33"/>
	<path fill="#B17F4A" d="M251.43,179.343l-0.851,2.04C250.969,180.393,251.27,179.713,251.43,179.343z"/>
	<g>
		<ellipse fill="#4F391D" cx="156.85" cy="163.028" rx="32" ry="10.123"/>
		<circle fill="#B17F4A" cx="168.897" cy="176.101" r="10.072"/>
		<circle fill="#B17F4A" cx="142.897" cy="176.101" r="10.072"/>
	</g>
	<g>
		<path fill="#4F391D" d="M235.264,156.95c0,0-0.41,0.624-1.178,1.794c-0.793,1.154-1.813,2.934-3.461,4.985
			c-0.811,1.03-1.647,2.239-2.68,3.44c-1.025,1.207-2.162,2.49-3.373,3.873c-1.289,1.31-2.66,2.705-4.104,4.175
			c-1.534,1.375-3.142,2.84-4.878,4.302c-3.535,2.834-7.463,5.848-12,8.442c-2.209,1.403-4.623,2.579-7.055,3.862
			c-1.217,0.639-2.51,1.152-3.791,1.725c-1.285,0.563-2.578,1.147-3.932,1.607c-1.343,0.492-2.697,0.988-4.061,1.488
			c-1.391,0.42-2.792,0.843-4.201,1.269c-0.708,0.204-1.41,0.44-2.129,0.618c-0.721,0.169-1.445,0.339-2.17,0.51
			c-1.457,0.31-2.907,0.7-4.393,0.934c-5.92,1.099-12.027,1.586-18.14,1.713l-4.546-0.162c-0.75-0.039-1.471-0.026-2.244-0.108
			l-2.305-0.222c-1.526-0.173-3.084-0.245-4.573-0.505c-1.496-0.24-2.987-0.479-4.472-0.716c-1.486-0.234-2.936-0.624-4.393-0.934
			c-0.725-0.17-1.449-0.34-2.17-0.51c-0.719-0.178-1.421-0.414-2.128-0.618c-1.41-0.426-2.811-0.849-4.202-1.269
			c-1.364-0.5-2.717-0.996-4.06-1.488c-1.354-0.46-2.646-1.045-3.932-1.607c-1.281-0.573-2.574-1.085-3.791-1.725
			c-2.432-1.283-4.846-2.459-7.055-3.862c-4.537-2.594-8.465-5.607-12-8.442c-1.735-1.461-3.343-2.926-4.877-4.302
			c-1.445-1.47-2.816-2.865-4.104-4.175c-1.211-1.382-2.349-2.666-3.374-3.872c-1.032-1.201-1.863-2.403-2.673-3.433
			c-1.643-2.043-2.676-3.841-3.468-4.993c-0.767-1.169-1.176-1.793-1.176-1.793s0.49,0.563,1.41,1.618
			c0.93,1.045,2.221,2.63,4.052,4.478c0.913,0.924,1.855,2.005,3.001,3.068c1.134,1.068,2.36,2.224,3.67,3.459
			c1.373,1.157,2.833,2.389,4.374,3.688c1.621,1.197,3.262,2.525,5.048,3.808c0.912,0.616,1.842,1.244,2.79,1.885
			c0.473,0.32,0.951,0.643,1.433,0.968c0.492,0.311,1.003,0.601,1.51,0.906c1.012,0.611,2.041,1.231,3.086,1.862
			c1.046,0.626,2.165,1.166,3.265,1.766c2.185,1.235,4.563,2.236,6.946,3.34c1.195,0.544,2.457,0.972,3.692,1.489
			c1.243,0.498,2.491,1.018,3.798,1.413c5.123,1.886,10.646,3.065,16.242,4.15c1.412,0.211,2.829,0.422,4.25,0.635
			c1.423,0.235,2.833,0.275,4.253,0.425l2.131,0.188c0.705,0.071,1.475,0.052,2.21,0.083l4.381,0.112
			c5.796-0.063,11.597-0.459,17.226-1.444c5.596-1.084,11.119-2.264,16.242-4.15c1.307-0.396,2.555-0.915,3.798-1.413
			c1.234-0.518,2.496-0.945,3.691-1.489c2.383-1.104,4.762-2.105,6.946-3.34c1.102-0.6,2.219-1.139,3.266-1.766
			c1.045-0.631,2.074-1.251,3.086-1.862c0.507-0.305,1.02-0.595,1.511-0.905c0.481-0.326,0.959-0.649,1.433-0.969
			c0.947-0.641,1.878-1.269,2.789-1.885c1.787-1.283,3.429-2.611,5.049-3.808c1.54-1.299,3-2.53,4.373-3.688
			c1.311-1.235,2.537-2.391,3.67-3.459c1.146-1.063,2.083-2.138,2.996-3.061c1.826-1.84,3.131-3.443,4.059-4.485
			C234.774,157.513,235.264,156.95,235.264,156.95z"/>
	</g>
	<g>
		<path fill="#4F391D" d="M224.606,152.906c0,0,0.359-0.162,1.027-0.31c0.332-0.077,0.74-0.156,1.215-0.207
			c0.471-0.033,1.016-0.1,1.605-0.074c0.592,0.016,1.239,0.053,1.914,0.188c0.688,0.082,1.383,0.327,2.116,0.545
			c0.7,0.306,1.463,0.579,2.144,1.043c0.343,0.229,0.688,0.459,1.035,0.69c0.326,0.263,0.629,0.56,0.938,0.846
			c0.662,0.538,1.104,1.275,1.61,1.929c0.456,0.689,0.755,1.451,1.086,2.151c0.242,0.734,0.397,1.462,0.551,2.139
			c0.138,0.68,0.104,1.341,0.132,1.933c0,0.295-0.001,0.579-0.002,0.848c-0.002,0.268-0.076,0.523-0.108,0.76
			c-0.075,0.474-0.165,0.882-0.247,1.215c-0.154,0.665-0.287,1.031-0.287,1.031s-0.179-0.372-0.41-0.999
			c-0.12-0.313-0.258-0.689-0.387-1.115c-0.116-0.43-0.329-0.89-0.539-1.382c-0.222-0.486-0.367-1.037-0.639-1.559
			c-0.285-0.515-0.53-1.071-0.816-1.615c-0.168-0.255-0.338-0.515-0.51-0.777c-0.176-0.255-0.288-0.561-0.518-0.781
			c-0.416-0.468-0.743-1.022-1.231-1.435l-0.674-0.673l-0.753-0.588c-0.234-0.217-0.5-0.393-0.772-0.554
			c-0.269-0.167-0.521-0.36-0.79-0.519c-0.558-0.282-1.078-0.619-1.627-0.847c-0.533-0.266-1.062-0.478-1.558-0.682
			c-0.496-0.197-0.965-0.375-1.386-0.524c-0.425-0.122-0.799-0.286-1.113-0.367C224.971,153.019,224.606,152.906,224.606,152.906z"
			/>
	</g>
	<g>
		<path fill="#4F391D" d="M82.479,153.583c0,0-0.366,0.113-1.006,0.312c-0.314,0.081-0.688,0.245-1.113,0.367
			c-0.421,0.149-0.89,0.327-1.386,0.524c-0.496,0.204-1.024,0.416-1.558,0.682c-0.549,0.228-1.069,0.565-1.627,0.847
			c-0.269,0.159-0.521,0.352-0.79,0.519c-0.273,0.161-0.539,0.337-0.773,0.554l-0.752,0.588l-0.674,0.673
			c-0.488,0.413-0.815,0.967-1.232,1.435c-0.229,0.221-0.341,0.526-0.517,0.781c-0.172,0.263-0.342,0.522-0.51,0.777
			c-0.287,0.544-0.531,1.1-0.817,1.615c-0.272,0.522-0.417,1.073-0.639,1.559c-0.21,0.492-0.423,0.952-0.539,1.382
			c-0.129,0.426-0.267,0.802-0.387,1.115c-0.231,0.627-0.41,0.999-0.41,0.999s-0.134-0.366-0.288-1.031
			c-0.082-0.333-0.171-0.741-0.247-1.215c-0.032-0.237-0.106-0.493-0.109-0.76c0-0.27-0.001-0.553-0.001-0.848
			c0.028-0.592-0.006-1.253,0.132-1.933c0.153-0.677,0.309-1.405,0.551-2.139c0.332-0.7,0.629-1.462,1.086-2.151
			c0.506-0.654,0.949-1.391,1.61-1.929c0.31-0.286,0.612-0.583,0.938-0.846c0.347-0.231,0.693-0.461,1.036-0.69
			c0.681-0.465,1.444-0.737,2.144-1.043c0.734-0.219,1.428-0.463,2.116-0.545c0.675-0.136,1.322-0.172,1.914-0.188
			c0.59-0.025,1.135,0.041,1.606,0.074c0.474,0.051,0.882,0.13,1.215,0.207C82.119,153.421,82.479,153.583,82.479,153.583z"/>
	</g>
	<path fill="#B17F4A" d="M192.969,335.349c-42.375,61.034-13.996,92.141-7.217,137.912c6.779,45.772,48.77,14.374,43.491,3.088
		c-10.67-22.818-20.101-89.005-3.985-104c35.104-32.662,31.015-48.663,31.015-48.663s-40.667-47.999-72.667-37.999
		S246.454,258.32,192.969,335.349z"/>
	<g>
		<path fill="#4F391D" d="M227.784,476.091c0,0,0.055,0.145,0.158,0.416c0.051,0.137,0.114,0.304,0.189,0.501
			c0.119,0.272,0.256,0.585,0.41,0.935c0.075,0.178,0.154,0.364,0.237,0.56c0.063,0.176,0.128,0.36,0.195,0.552
			c0.136,0.383,0.277,0.794,0.405,1.23c0.275,0.872,0.523,1.844,0.756,2.892c0.459,2.098,0.799,4.488,0.943,7.054
			c0.081,1.299,0.059,2.589,0.049,4.057c0.033,1.205,0.107,2.325,0.103,3.648c0.026,1.285-0.007,2.54-0.063,3.762
			c-0.066,1.227-0.146,2.429-0.287,3.588c-0.12,1.157-0.302,2.271-0.479,3.315c-0.2,1.047-0.41,2.025-0.645,2.919
			c-0.465,1.787-0.992,3.225-1.418,4.198c-0.425,0.977-0.746,1.486-0.746,1.486s0.155-0.583,0.27-1.615
			c0.116-1.031,0.189-2.51,0.109-4.265c-0.039-0.878-0.123-1.825-0.233-2.817c-0.134-0.996-0.278-2.035-0.493-3.103
			c-0.191-1.066-0.455-2.162-0.73-3.262c-0.287-1.105-0.599-2.208-0.953-3.269c-0.309-1.033-0.762-2.233-1.134-3.33
			c-0.456-0.828-1.124-1.752-1.728-2.57c-1.252-1.664-2.553-3.104-3.697-4.187c-0.574-0.539-1.104-1.005-1.582-1.368
			c-0.234-0.191-0.457-0.351-0.662-0.493c-0.102-0.071-0.199-0.141-0.292-0.206c-0.085-0.05-0.158-0.078-0.229-0.114
			c-0.151-0.077-0.246-0.106-0.388-0.2c-0.171-0.123-0.315-0.229-0.434-0.313c-0.235-0.171-0.36-0.262-0.36-0.262L227.784,476.091z"
			/>
	</g>
	<g>
		<path fill="#4F391D" d="M207.293,481.167c0,0,0.056,0.146,0.158,0.417c0.051,0.136,0.115,0.304,0.189,0.501
			c0.119,0.271,0.256,0.584,0.41,0.935c0.075,0.177,0.154,0.363,0.238,0.56c0.062,0.176,0.127,0.359,0.194,0.551
			c0.137,0.383,0.277,0.795,0.405,1.23c0.275,0.872,0.522,1.844,0.755,2.892c0.46,2.098,0.8,4.488,0.944,7.053
			c0.082,1.3,0.059,2.587,0.051,4.058c0.032,1.205,0.106,2.324,0.102,3.648c0.026,1.284-0.007,2.539-0.064,3.761
			c-0.066,1.228-0.146,2.429-0.287,3.588c-0.12,1.157-0.301,2.271-0.479,3.316c-0.2,1.046-0.41,2.024-0.645,2.918
			c-0.466,1.787-0.992,3.225-1.419,4.198c-0.425,0.977-0.745,1.486-0.745,1.486s0.154-0.583,0.269-1.615
			c0.116-1.031,0.19-2.51,0.11-4.265c-0.039-0.878-0.123-1.824-0.233-2.817c-0.134-0.995-0.278-2.034-0.493-3.103
			c-0.191-1.066-0.455-2.161-0.73-3.261c-0.287-1.105-0.599-2.209-0.953-3.27c-0.309-1.033-0.761-2.232-1.134-3.329
			c-0.456-0.825-1.124-1.752-1.728-2.569c-1.253-1.664-2.553-3.105-3.698-4.187c-0.574-0.54-1.104-1.006-1.581-1.369
			c-0.234-0.191-0.458-0.352-0.662-0.493c-0.102-0.072-0.199-0.141-0.293-0.206c-0.085-0.05-0.158-0.078-0.229-0.114
			c-0.151-0.078-0.245-0.107-0.388-0.2c-0.17-0.124-0.315-0.229-0.434-0.314c-0.234-0.17-0.359-0.261-0.359-0.261L207.293,481.167z"
			/>
	</g>
	<g>
		<path fill="#4F391D" d="M216.595,478.602c0,0,0.055,0.145,0.157,0.416c0.051,0.137,0.115,0.304,0.189,0.501
			c0.119,0.271,0.257,0.585,0.41,0.935c0.076,0.177,0.154,0.364,0.238,0.56c0.062,0.176,0.127,0.359,0.194,0.552
			c0.137,0.383,0.278,0.794,0.405,1.229c0.275,0.873,0.523,1.845,0.756,2.893c0.459,2.097,0.8,4.488,0.943,7.053
			c0.082,1.299,0.059,2.589,0.051,4.058c0.032,1.205,0.106,2.324,0.102,3.648c0.026,1.284-0.008,2.539-0.064,3.761
			c-0.066,1.228-0.146,2.429-0.287,3.588c-0.12,1.157-0.302,2.271-0.479,3.315c-0.2,1.047-0.411,2.025-0.645,2.919
			c-0.466,1.787-0.992,3.225-1.418,4.198c-0.426,0.977-0.746,1.486-0.746,1.486s0.155-0.583,0.269-1.615
			c0.117-1.031,0.19-2.51,0.11-4.265c-0.039-0.878-0.123-1.825-0.233-2.817c-0.134-0.996-0.278-2.035-0.493-3.103
			c-0.191-1.066-0.455-2.162-0.73-3.262c-0.287-1.105-0.598-2.208-0.953-3.269c-0.308-1.033-0.76-2.233-1.133-3.33
			c-0.455-0.827-1.123-1.751-1.728-2.569c-1.253-1.664-2.552-3.104-3.698-4.186c-0.574-0.54-1.104-1.006-1.581-1.369
			c-0.234-0.191-0.458-0.351-0.663-0.493c-0.102-0.071-0.198-0.141-0.291-0.206c-0.086-0.05-0.158-0.078-0.23-0.114
			c-0.15-0.077-0.245-0.106-0.387-0.2c-0.172-0.123-0.316-0.229-0.434-0.313c-0.236-0.171-0.361-0.262-0.361-0.262L216.595,478.602z
			"/>
	</g>
	<path fill="#B17F4A" d="M120.033,335.349c42.375,61.034,13.996,92.141,7.216,137.912c-6.779,45.772-48.769,14.374-43.491,3.088
		c10.67-22.818,20.101-89.005,3.985-104c-35.104-32.662-32.137-47.996-32.137-47.996s41.79-48.666,73.79-38.666
		S66.548,258.32,120.033,335.349z"/>
	<g>
		<path fill="#4F391D" d="M97.947,485.83c0,0-0.125,0.091-0.361,0.262c-0.118,0.085-0.263,0.19-0.434,0.313
			c-0.142,0.094-0.236,0.123-0.387,0.2c-0.072,0.036-0.145,0.064-0.23,0.114c-0.093,0.065-0.19,0.135-0.292,0.206
			c-0.205,0.143-0.429,0.302-0.663,0.493c-0.477,0.363-1.007,0.829-1.581,1.368c-1.146,1.082-2.445,2.522-3.697,4.187
			c-0.604,0.818-1.272,1.742-1.728,2.57c-0.373,1.097-0.825,2.297-1.134,3.33c-0.354,1.061-0.666,2.163-0.953,3.269
			c-0.276,1.1-0.539,2.195-0.731,3.262c-0.214,1.067-0.358,2.106-0.493,3.103c-0.11,0.992-0.195,1.939-0.234,2.817
			c-0.08,1.755-0.006,3.233,0.11,4.265c0.114,1.032,0.269,1.615,0.269,1.615s-0.321-0.51-0.746-1.486
			c-0.427-0.974-0.953-2.411-1.418-4.198c-0.234-0.894-0.444-1.872-0.645-2.919c-0.177-1.045-0.358-2.158-0.478-3.315
			c-0.142-1.159-0.221-2.361-0.287-3.588c-0.057-1.222-0.09-2.477-0.063-3.762c-0.005-1.323,0.069-2.443,0.102-3.648
			c-0.009-1.468-0.032-2.758,0.05-4.057c0.144-2.565,0.484-4.956,0.943-7.054c0.232-1.048,0.48-2.02,0.756-2.892
			c0.127-0.437,0.269-0.848,0.405-1.23c0.068-0.191,0.133-0.376,0.195-0.552c0.083-0.195,0.162-0.382,0.237-0.56
			c0.154-0.35,0.292-0.662,0.411-0.935c0.075-0.197,0.138-0.364,0.189-0.501c0.103-0.271,0.157-0.416,0.157-0.416L97.947,485.83z"/>
	</g>
	<g>
		<path fill="#4F391D" d="M118.438,490.905c0,0-0.125,0.091-0.36,0.261c-0.118,0.086-0.263,0.19-0.434,0.314
			c-0.143,0.093-0.236,0.122-0.387,0.2c-0.072,0.036-0.145,0.064-0.23,0.114c-0.093,0.065-0.19,0.134-0.292,0.206
			c-0.205,0.142-0.428,0.302-0.663,0.493c-0.477,0.363-1.007,0.829-1.581,1.369c-1.146,1.081-2.445,2.522-3.698,4.187
			c-0.604,0.817-1.272,1.744-1.728,2.569c-0.373,1.097-0.826,2.296-1.134,3.329c-0.354,1.061-0.666,2.164-0.952,3.27
			c-0.276,1.1-0.539,2.194-0.731,3.261c-0.214,1.068-0.358,2.107-0.493,3.103c-0.11,0.993-0.195,1.939-0.233,2.817
			c-0.08,1.755-0.006,3.233,0.11,4.265c0.114,1.032,0.269,1.615,0.269,1.615s-0.321-0.51-0.746-1.486
			c-0.427-0.974-0.954-2.411-1.419-4.198c-0.234-0.894-0.444-1.872-0.645-2.918c-0.177-1.046-0.358-2.159-0.478-3.316
			c-0.142-1.159-0.221-2.36-0.287-3.588c-0.058-1.222-0.091-2.477-0.064-3.761c-0.005-1.324,0.069-2.443,0.102-3.648
			c-0.009-1.471-0.031-2.758,0.051-4.058c0.144-2.564,0.484-4.955,0.944-7.053c0.232-1.048,0.48-2.02,0.755-2.892
			c0.127-0.436,0.269-0.848,0.405-1.23c0.068-0.191,0.133-0.375,0.195-0.551c0.083-0.196,0.163-0.383,0.238-0.56
			c0.154-0.351,0.291-0.663,0.411-0.935c0.074-0.197,0.138-0.365,0.189-0.501c0.103-0.271,0.158-0.417,0.158-0.417L118.438,490.905z
			"/>
	</g>
	<g>
		<path fill="#4F391D" d="M109.136,488.34c0,0-0.125,0.091-0.361,0.262c-0.118,0.085-0.263,0.19-0.434,0.313
			c-0.142,0.094-0.236,0.123-0.387,0.2c-0.072,0.036-0.145,0.064-0.23,0.114c-0.093,0.065-0.19,0.135-0.292,0.206
			c-0.205,0.143-0.428,0.302-0.663,0.493c-0.477,0.363-1.007,0.829-1.582,1.369c-1.146,1.081-2.445,2.521-3.698,4.186
			c-0.604,0.818-1.272,1.742-1.728,2.569c-0.373,1.097-0.825,2.297-1.133,3.33c-0.354,1.061-0.666,2.163-0.952,3.269
			c-0.276,1.1-0.54,2.195-0.731,3.262c-0.214,1.067-0.358,2.106-0.493,3.103c-0.11,0.992-0.194,1.939-0.233,2.817
			c-0.08,1.755-0.007,3.233,0.11,4.265c0.114,1.032,0.269,1.615,0.269,1.615s-0.321-0.51-0.746-1.486
			c-0.426-0.974-0.953-2.411-1.418-4.198c-0.233-0.894-0.444-1.872-0.645-2.919c-0.176-1.045-0.358-2.158-0.478-3.315
			c-0.142-1.159-0.221-2.36-0.287-3.588c-0.057-1.222-0.091-2.477-0.064-3.761c-0.005-1.324,0.069-2.443,0.102-3.648
			c-0.009-1.469-0.032-2.759,0.05-4.058c0.144-2.564,0.484-4.956,0.944-7.053c0.232-1.048,0.48-2.02,0.756-2.893
			c0.127-0.436,0.268-0.847,0.405-1.229c0.068-0.192,0.133-0.376,0.195-0.552c0.083-0.195,0.162-0.383,0.237-0.56
			c0.154-0.35,0.292-0.663,0.411-0.935c0.075-0.197,0.138-0.364,0.189-0.501c0.103-0.271,0.157-0.416,0.157-0.416L109.136,488.34z"
			/>
	</g>
</g>
<rect fill="none" width="313.699" height="554.354"/>
</svg>
