<?xml version="1.0" encoding="utf-8"?>
<!-- Generator: Adobe Illustrator 16.0.0, SVG Export Plug-In . SVG Version: 6.00 Build 0)  -->
<!DOCTYPE svg PUBLIC "-//W3C//DTD SVG 1.1//EN" "http://www.w3.org/Graphics/SVG/1.1/DTD/svg11.dtd">
<svg version="1.1" xmlns="http://www.w3.org/2000/svg" xmlns:xlink="http://www.w3.org/1999/xlink" x="0px" y="0px"
	 width="313.699px" height="554.355px" viewBox="502.474 0 313.699 554.355" enable-background="new 502.474 0 313.699 554.355"
	 xml:space="preserve">
<g id="Слой_1">
	<g>
		<path fill="#B17F4A" d="M518.68,145.718c0,24.69,15.742,47.043,41.193,63.224c25.451,16.181,60.613,26.188,99.451,26.188
			c77.675,0,140.643-40.031,140.643-89.412c0-49.381-62.968-89.412-140.643-89.412C581.648,56.306,518.68,96.337,518.68,145.718z"/>
		<path fill="#B17F4A" d="M625.472,65.718c-0.002,0.001,35.135-6.085,55.294-44.471c-8.349,16.124-17.646,46.824-42.353,52.706
			s35.293-14.32,50.588-33.882c-10.271,20-15.613,43.596-34.437,45.949"/>
		
			<ellipse transform="matrix(0.1318 -0.9913 0.9913 0.1318 319.4864 640.4114)" fill="#B17F4A" cx="525.34" cy="137.818" rx="38.812" ry="22.479"/>
		
			<ellipse transform="matrix(0.1318 -0.9913 0.9913 0.1318 319.4821 640.4111)" fill="#4F391D" cx="525.343" cy="137.818" rx="26.176" ry="15.161"/>
		<path fill="#B17F4A" d="M545.623,139.6c-0.271-0.992-15.542,0.667-29.542-4c0,0,23.147,14.872,29.241,13.436
			c6.093-1.436-19.907,5.564-19.907,5.564s26,7,26,0"/>
		
			<ellipse transform="matrix(0.1318 0.9913 -0.9913 0.1318 825.3609 -666.7191)" fill="#B17F4A" cx="793.296" cy="137.821" rx="38.812" ry="22.479"/>
		
			<ellipse transform="matrix(0.1318 0.9913 -0.9913 0.1318 825.3609 -666.7268)" fill="#4F391D" cx="793.298" cy="137.814" rx="26.176" ry="15.161"/>
		<path fill="#B17F4A" d="M773.025,134.267c0.63-0.814,9.289-3.723,23.289-8.39c0,0-16.895,19.262-22.987,17.826
			s18.737-0.826,18.737-0.826s-24.829,13.39-24.829,6.39c0,0,15.329,2.11,23.079-0.64c-5.25,9.5-16.617,7.029-17.5,7
			C765.314,155.377,770.987,136.906,773.025,134.267z"/>
		
			<radialGradient id="SVGID_1_" cx="-826.2976" cy="181.2573" r="71.6793" gradientTransform="matrix(-0.9999 0.0166 -0.0378 -2.2761 -164.9306 878.1088)" gradientUnits="userSpaceOnUse">
			<stop  offset="0.0049" style="stop-color:#856137"/>
			<stop  offset="0.6995" style="stop-color:#856137"/>
			<stop  offset="1" style="stop-color:#B17F4A"/>
		</radialGradient>
		<path fill="url(#SVGID_1_)" d="M563.908,200.27c0,0,54.71,6.393,48.42,58.083c-0.94,7.71-4.92,8.239-11.94,10.92
			c-8.399,3.2-33.961,8.54-43.272,55.08c-5.61,28.04-3.962,72,7.356,114c11.319,42-9.356,116.002,90.963,116.002h7.081
			c100.32,0,79.645-74.002,90.963-116.002c11.32-42,10.969-85.96,5.357-114c-9.312-46.54-32.873-54.88-41.272-58.08
			c-7.021-2.681-11-0.21-11.939-7.92c-6.289-51.69,48.42-58.083,48.42-58.083"/>
		<path fill="#B17F4A" d="M753.905,200.59l-0.852,2.04C753.444,201.64,753.745,200.96,753.905,200.59z"/>
		<g>
			
				<ellipse transform="matrix(0.2107 -0.9775 0.9775 0.2107 341.1817 791.4157)" fill="#4F391D" cx="660.698" cy="184.421" rx="10.123" ry="32"/>
			<circle fill="#B17F4A" cx="669.718" cy="199.74" r="10.072"/>
			<circle fill="#B17F4A" cx="644.302" cy="194.26" r="10.072"/>
		</g>
		<path fill="#B17F4A" d="M695.444,345.35c-42.375,61.033-13.996,92.141-7.218,137.912c6.779,45.771,48.771,14.373,43.491,3.088
			c-10.67-22.818-20.101-89.006-3.985-104c35.104-32.662,31.016-48.663,31.016-48.663s-40.667-47.999-72.667-37.999
			S748.928,268.32,695.444,345.35z"/>
		<g>
			<path fill="#4F391D" d="M730.259,486.092c0,0,0.055,0.145,0.158,0.416c0.051,0.137,0.114,0.303,0.188,0.5
				c0.119,0.273,0.257,0.586,0.41,0.936c0.075,0.178,0.154,0.363,0.237,0.561c0.063,0.176,0.128,0.359,0.195,0.551
				c0.136,0.385,0.276,0.795,0.404,1.23c0.275,0.873,0.523,1.844,0.756,2.893c0.459,2.098,0.8,4.488,0.943,7.055
				c0.081,1.299,0.06,2.588,0.049,4.057c0.033,1.205,0.107,2.324,0.104,3.646c0.025,1.285-0.007,2.541-0.063,3.764
				c-0.065,1.227-0.146,2.428-0.287,3.588c-0.12,1.156-0.302,2.27-0.479,3.314c-0.2,1.047-0.41,2.025-0.646,2.92
				c-0.465,1.785-0.991,3.225-1.418,4.197c-0.425,0.977-0.746,1.486-0.746,1.486s0.155-0.584,0.271-1.615
				c0.116-1.031,0.188-2.51,0.109-4.266c-0.039-0.877-0.123-1.824-0.233-2.816c-0.134-0.996-0.278-2.035-0.493-3.104
				c-0.19-1.066-0.455-2.162-0.729-3.262c-0.287-1.105-0.6-2.209-0.953-3.27c-0.31-1.033-0.763-2.232-1.135-3.33
				c-0.455-0.828-1.123-1.752-1.728-2.57c-1.252-1.664-2.553-3.104-3.697-4.186c-0.574-0.539-1.104-1.006-1.582-1.369
				c-0.233-0.191-0.457-0.35-0.662-0.492c-0.102-0.07-0.198-0.141-0.292-0.207c-0.085-0.049-0.157-0.078-0.229-0.113
				c-0.151-0.076-0.246-0.105-0.388-0.199c-0.172-0.123-0.315-0.23-0.435-0.314c-0.234-0.17-0.359-0.262-0.359-0.262
				L730.259,486.092z"/>
		</g>
		<g>
			<path fill="#4F391D" d="M709.767,491.168c0,0,0.057,0.146,0.158,0.416c0.051,0.137,0.115,0.305,0.189,0.502
				c0.118,0.271,0.256,0.584,0.409,0.934c0.075,0.178,0.154,0.363,0.238,0.561c0.063,0.176,0.127,0.359,0.194,0.551
				c0.137,0.383,0.276,0.795,0.405,1.23c0.274,0.873,0.521,1.844,0.755,2.893c0.46,2.098,0.8,4.488,0.943,7.053
				c0.082,1.301,0.06,2.586,0.052,4.059c0.031,1.205,0.105,2.324,0.102,3.646c0.026,1.285-0.007,2.539-0.064,3.762
				c-0.065,1.229-0.146,2.43-0.286,3.588c-0.12,1.156-0.302,2.271-0.479,3.316c-0.2,1.045-0.41,2.023-0.645,2.918
				c-0.467,1.787-0.992,3.225-1.419,4.197c-0.426,0.979-0.745,1.486-0.745,1.486s0.153-0.582,0.269-1.615
				c0.116-1.031,0.19-2.51,0.11-4.264c-0.039-0.879-0.123-1.824-0.233-2.818c-0.134-0.994-0.278-2.033-0.493-3.102
				c-0.19-1.066-0.455-2.162-0.729-3.262c-0.287-1.105-0.6-2.209-0.953-3.27c-0.309-1.033-0.761-2.232-1.134-3.33
				c-0.456-0.824-1.124-1.752-1.729-2.568c-1.253-1.664-2.553-3.105-3.697-4.188c-0.574-0.539-1.104-1.006-1.581-1.369
				c-0.234-0.191-0.458-0.352-0.662-0.492c-0.103-0.072-0.199-0.141-0.293-0.207c-0.085-0.049-0.158-0.078-0.229-0.113
				c-0.15-0.078-0.245-0.107-0.388-0.199c-0.17-0.125-0.315-0.23-0.435-0.314c-0.233-0.17-0.358-0.262-0.358-0.262L709.767,491.168z
				"/>
		</g>
		<g>
			<path fill="#4F391D" d="M719.07,488.602c0,0,0.055,0.146,0.156,0.416c0.052,0.139,0.115,0.305,0.189,0.502
				c0.119,0.271,0.257,0.584,0.41,0.936c0.076,0.176,0.153,0.363,0.237,0.559c0.063,0.178,0.127,0.359,0.194,0.553
				c0.137,0.383,0.278,0.795,0.405,1.229c0.274,0.873,0.522,1.846,0.756,2.895c0.459,2.096,0.8,4.486,0.943,7.053
				c0.082,1.299,0.059,2.588,0.051,4.057c0.032,1.205,0.105,2.324,0.102,3.648c0.026,1.285-0.008,2.539-0.063,3.762
				c-0.066,1.227-0.146,2.428-0.287,3.588c-0.12,1.156-0.302,2.271-0.479,3.314c-0.2,1.047-0.411,2.025-0.645,2.92
				c-0.466,1.787-0.992,3.225-1.418,4.197c-0.426,0.977-0.746,1.486-0.746,1.486s0.155-0.584,0.269-1.615
				c0.117-1.031,0.19-2.51,0.11-4.266c-0.039-0.877-0.123-1.824-0.233-2.816c-0.134-0.996-0.277-2.035-0.492-3.104
				c-0.191-1.066-0.455-2.162-0.73-3.262c-0.287-1.105-0.598-2.207-0.953-3.27c-0.308-1.033-0.76-2.232-1.133-3.33
				c-0.455-0.826-1.123-1.75-1.729-2.568c-1.253-1.664-2.552-3.104-3.697-4.186c-0.574-0.541-1.104-1.006-1.581-1.369
				c-0.234-0.191-0.458-0.352-0.663-0.492c-0.103-0.072-0.198-0.143-0.291-0.207c-0.086-0.051-0.158-0.078-0.23-0.113
				c-0.149-0.078-0.244-0.107-0.387-0.201c-0.172-0.123-0.315-0.229-0.434-0.313c-0.236-0.172-0.361-0.262-0.361-0.262
				L719.07,488.602z"/>
		</g>
		<path fill="#B17F4A" d="M622.508,345.35c42.375,61.033,13.996,92.141,7.216,137.912c-6.778,45.771-48.769,14.373-43.491,3.088
			c10.671-22.818,20.102-89.006,3.985-104c-35.104-32.662-32.137-47.996-32.137-47.996s41.79-48.666,73.79-38.666
			S569.022,268.32,622.508,345.35z"/>
		<g>
			<path fill="#4F391D" d="M600.422,495.831c0,0-0.125,0.092-0.361,0.262c-0.118,0.086-0.263,0.191-0.434,0.314
				c-0.143,0.094-0.236,0.123-0.387,0.199c-0.072,0.035-0.146,0.064-0.23,0.113c-0.093,0.066-0.189,0.137-0.292,0.207
				c-0.205,0.143-0.429,0.301-0.663,0.492c-0.477,0.363-1.007,0.83-1.581,1.369c-1.146,1.082-2.444,2.521-3.697,4.186
				c-0.604,0.818-1.271,1.742-1.728,2.57c-0.373,1.098-0.825,2.297-1.134,3.33c-0.354,1.061-0.666,2.164-0.953,3.27
				c-0.276,1.1-0.539,2.195-0.731,3.262c-0.214,1.066-0.357,2.105-0.492,3.104c-0.11,0.992-0.195,1.939-0.234,2.816
				c-0.08,1.756-0.006,3.232,0.11,4.266c0.113,1.031,0.269,1.615,0.269,1.615s-0.321-0.51-0.746-1.486
				c-0.427-0.975-0.953-2.412-1.418-4.199c-0.234-0.893-0.444-1.871-0.645-2.918c-0.178-1.045-0.358-2.158-0.479-3.314
				c-0.142-1.16-0.221-2.361-0.287-3.588c-0.057-1.223-0.09-2.479-0.063-3.764c-0.005-1.322,0.068-2.441,0.102-3.646
				c-0.009-1.469-0.032-2.758,0.05-4.059c0.145-2.564,0.484-4.955,0.943-7.053c0.232-1.049,0.48-2.02,0.756-2.893
				c0.127-0.438,0.27-0.848,0.405-1.23c0.068-0.189,0.133-0.375,0.195-0.551c0.083-0.195,0.161-0.383,0.236-0.561
				c0.154-0.35,0.292-0.662,0.411-0.936c0.075-0.197,0.138-0.363,0.189-0.5c0.103-0.271,0.156-0.416,0.156-0.416L600.422,495.831z"
				/>
		</g>
		<g>
			<path fill="#4F391D" d="M620.913,500.907c0,0-0.125,0.09-0.36,0.26c-0.118,0.086-0.263,0.191-0.434,0.314
				c-0.144,0.094-0.236,0.121-0.388,0.199c-0.071,0.037-0.145,0.064-0.229,0.115c-0.093,0.064-0.19,0.133-0.292,0.205
				c-0.205,0.143-0.428,0.303-0.663,0.494c-0.477,0.363-1.007,0.828-1.581,1.369c-1.146,1.08-2.445,2.521-3.698,4.186
				c-0.604,0.818-1.271,1.744-1.728,2.57c-0.373,1.096-0.826,2.295-1.134,3.328c-0.354,1.061-0.666,2.164-0.952,3.27
				c-0.276,1.102-0.539,2.195-0.731,3.262c-0.214,1.068-0.357,2.107-0.493,3.104c-0.109,0.992-0.194,1.939-0.232,2.816
				c-0.08,1.756-0.006,3.232,0.109,4.266c0.114,1.031,0.27,1.615,0.27,1.615s-0.321-0.512-0.746-1.486
				c-0.427-0.975-0.954-2.412-1.419-4.199c-0.234-0.893-0.444-1.871-0.646-2.918c-0.177-1.045-0.357-2.158-0.478-3.314
				c-0.142-1.16-0.221-2.361-0.287-3.59c-0.058-1.221-0.091-2.477-0.063-3.76c-0.006-1.324,0.068-2.443,0.102-3.648
				c-0.009-1.471-0.031-2.758,0.051-4.059c0.145-2.563,0.484-4.955,0.944-7.053c0.231-1.047,0.479-2.02,0.755-2.891
				c0.127-0.438,0.269-0.85,0.405-1.23c0.067-0.191,0.133-0.375,0.194-0.551c0.083-0.197,0.163-0.383,0.238-0.561
				c0.154-0.352,0.291-0.664,0.411-0.936c0.074-0.197,0.138-0.365,0.188-0.5c0.104-0.271,0.158-0.418,0.158-0.418L620.913,500.907z"
				/>
		</g>
		<g>
			<path fill="#4F391D" d="M611.611,498.34c0,0-0.125,0.092-0.361,0.262c-0.118,0.086-0.263,0.191-0.435,0.314
				c-0.142,0.094-0.235,0.123-0.387,0.199c-0.072,0.037-0.145,0.064-0.229,0.115c-0.094,0.064-0.19,0.135-0.292,0.205
				c-0.205,0.143-0.429,0.303-0.663,0.492c-0.478,0.363-1.007,0.83-1.582,1.369c-1.146,1.082-2.445,2.521-3.698,4.188
				c-0.604,0.816-1.272,1.74-1.728,2.568c-0.373,1.098-0.825,2.297-1.134,3.33c-0.354,1.061-0.666,2.162-0.952,3.27
				c-0.275,1.1-0.539,2.193-0.73,3.262c-0.214,1.066-0.358,2.105-0.493,3.102c-0.11,0.992-0.194,1.939-0.232,2.818
				c-0.08,1.754-0.008,3.232,0.109,4.264c0.114,1.033,0.27,1.615,0.27,1.615s-0.321-0.51-0.746-1.486
				c-0.427-0.973-0.953-2.41-1.418-4.197c-0.233-0.895-0.444-1.871-0.646-2.918c-0.176-1.045-0.357-2.158-0.478-3.316
				c-0.143-1.158-0.222-2.359-0.287-3.588c-0.058-1.221-0.091-2.477-0.064-3.76c-0.005-1.324,0.069-2.443,0.103-3.648
				c-0.009-1.469-0.032-2.76,0.05-4.059c0.144-2.564,0.484-4.955,0.944-7.053c0.231-1.049,0.479-2.02,0.756-2.893
				c0.127-0.436,0.268-0.848,0.404-1.229c0.068-0.193,0.134-0.377,0.195-0.553c0.083-0.195,0.162-0.383,0.237-0.561
				c0.154-0.35,0.292-0.662,0.411-0.936c0.074-0.195,0.138-0.363,0.188-0.5c0.104-0.271,0.157-0.416,0.157-0.416L611.611,498.34z"/>
		</g>
	</g>
	<rect x="502.474" y="21.247" fill="none" width="313.699" height="533.108"/>
	<g>
		<g>
			<path fill="#6063A3" d="M601.666,162.717c-24.807-0.694-47.989-31.407-43.909-33.397c9.34-4.56,31.692,1.342,43.913,1.342
				c13.01,0,34.237-6.452,43.907-1.342C648.957,131.1,629.342,163.492,601.666,162.717z"/>
		</g>
		<g>
			<path fill="#484A7A" d="M645.577,129.32c-1.424,1.16-16.235,26.617-43.911,25.843c-24.807-0.694-42.345-24.56-43.909-25.843
				c3.229-2.64,6.942,3.018,11.022,1.027c9.34-4.56,20.67-7.24,32.891-7.24c13.01,0,25.01,3.04,34.68,8.15
				C639.729,133.037,642.816,127.07,645.577,129.32z"/>
		</g>
		<path fill="#9F391D" d="M569.347,124.996c-0.096,0.07-0.197,0.133-0.294,0.201c-0.405,0.015-0.81,0.036-1.21,0.081
			c0.234-0.997,0.536-1.979,0.933-2.933c-4.08,1.989-7.788,4.332-11.021,6.975c3.233,2.643,6.941,4.986,11.021,6.975
			c-0.919-2.213-1.421-4.552-1.421-6.975c0-0.631,0.052-1.252,0.123-1.87c0.627-0.447,1.284-0.852,1.923-1.284
			c0.181-0.02,0.302-0.119,0.368-0.251c0.027-0.02,0.056-0.037,0.082-0.056C570.366,125.482,569.868,124.614,569.347,124.996z"/>
		<path fill="#9F391D" d="M645.577,129.32c-2.753-2.25-5.851-4.281-9.227-6.064c0.692,1.941,1.063,3.972,1.063,6.064
			s-0.371,4.124-1.063,6.064C639.726,133.601,642.824,131.57,645.577,129.32z"/>
	</g>
	<path fill="#721000" d="M612.016,217.814c0,0,5.479-2.253,14.234-5.926c2.186-0.926,0.576,0.125,3.132-0.815
		c2.553-0.948,5.277-1.869,8.127-2.751c2.854-0.873,5.836-1.696,8.922-2.4c3.088-0.693,6.275-1.299,9.576-1.63
		c1.657-0.175,3.308-0.273,5.084-0.272c1.56,0.038,3.114,0.075,4.655,0.112c3.065,0.076,6.208,0.366,9.172,0.597
		c2.958,0.287,5.793,0.628,8.484,0.988c2.685,0.39,5.218,0.792,7.549,1.211c2.329,0.432,4.459,0.861,6.342,1.273
		c1.883,0.421,3.211,0.415,4.556,0.769c2.688,0.691,4.517,0.607,4.517,0.607l-0.053,0.475c0,0-1.594,1.165-4.358,1.294
		c-1.384,0.077-3.063,0.164-4.979,0.211c-1.26,0.034-34.891-2.319-58.079-0.14C626.761,212.557,612.016,217.814,612.016,217.814z"/>
	<path fill="#4F391D" d="M612.016,217.814c30.144-16.735,61.817-17.559,94.35-8.238c-10.32-0.018-21.125-2.265-30.516-2.399
		C654.654,206.874,635.865,209.573,612.016,217.814z"/>
	<g>
		<path fill="#4F391D" d="M725.174,112.626c0,0-0.792,0.58-2.178,1.594c-0.688,0.507-1.522,1.122-2.48,1.828
			c-0.948,0.71-2.019,1.511-3.186,2.385c-1.152,0.891-2.42,1.822-3.716,2.862c-1.303,1.031-2.686,2.101-4.063,3.27
			c-1.385,1.157-2.823,2.341-4.212,3.62c-1.388,1.275-2.825,2.555-4.135,3.931c-0.691,0.699-1.358,1.4-1.97,2.104
			c-0.635,0.692-1.275,1.389-1.885,2.118c-0.625,0.709-1.228,1.43-1.806,2.158c-0.595,0.715-1.154,1.443-1.717,2.153
			c-1.132,1.413-2.184,2.818-3.157,4.168c-1.001,1.332-1.918,2.616-2.749,3.813c-1.684,2.381-3.046,4.404-4,5.824
			c-0.949,1.425-1.492,2.24-1.492,2.24s0.35-0.917,1.04-2.49c0.697-1.569,1.754-3.784,3.153-6.378
			c0.708-1.292,1.491-2.685,2.363-4.134c0.883-1.442,1.84-2.949,2.884-4.477c0.507-0.775,1.063-1.534,1.634-2.298
			c0.559-0.772,1.143-1.542,1.753-2.303c0.594-0.769,1.213-1.542,1.88-2.294c0.653-0.772,1.32-1.494,1.991-2.193
			c0.349-0.364,0.637-0.691,1.034-1.084l1.063-1.041c0.697-0.705,1.431-1.362,2.169-2.003c1.473-1.283,2.952-2.506,4.438-3.617
			c2.97-2.222,5.885-4.08,8.456-5.536c2.574-1.453,4.789-2.528,6.372-3.21c0.787-0.349,1.419-0.596,1.851-0.761
			C724.943,112.712,725.174,112.626,725.174,112.626z"/>
	</g>
	<g>
		<path fill="#4F391D" d="M678.023,112.629c0,0,0.23,0.086,0.663,0.249c0.432,0.165,1.063,0.412,1.851,0.761
			c1.583,0.683,3.798,1.757,6.372,3.21c2.571,1.456,5.486,3.314,8.456,5.536c1.485,1.11,2.965,2.334,4.438,3.617
			c0.738,0.641,1.472,1.298,2.169,2.003l1.063,1.041c0.397,0.393,0.686,0.72,1.034,1.084c0.671,0.699,1.338,1.421,1.991,2.193
			c0.667,0.752,1.286,1.525,1.88,2.294c0.61,0.761,1.194,1.531,1.753,2.303c0.571,0.765,1.127,1.523,1.634,2.298
			c1.044,1.528,2.001,3.035,2.884,4.477c0.872,1.45,1.655,2.843,2.363,4.134c1.399,2.594,2.456,4.809,3.153,6.378
			c0.69,1.573,1.04,2.49,1.04,2.49s-0.543-0.815-1.492-2.24c-0.954-1.419-2.316-3.442-4-5.824c-0.831-1.197-1.748-2.481-2.749-3.813
			c-0.974-1.35-2.025-2.755-3.157-4.168c-0.563-0.71-1.122-1.438-1.717-2.153c-0.578-0.728-1.181-1.449-1.806-2.158
			c-0.609-0.729-1.25-1.426-1.885-2.118c-0.611-0.704-1.278-1.406-1.97-2.104c-1.31-1.376-2.747-2.656-4.135-3.931
			c-1.389-1.279-2.827-2.463-4.212-3.62c-1.377-1.168-2.76-2.239-4.063-3.27c-1.296-1.041-2.563-1.972-3.716-2.862
			c-1.167-0.874-2.237-1.675-3.186-2.385c-0.958-0.706-1.793-1.321-2.48-1.828C678.815,113.208,678.023,112.629,678.023,112.629z"/>
	</g>
	<path fill="#B51F00" d="M701.598,226.758c0,3.275-2.655,5.93-5.931,5.93c-3.274,0-5.93-2.655-5.93-5.93s2.986-17.392,2.986-17.392
		S701.598,219.418,701.598,226.758z"/>
	<path fill="#FF8E7D" d="M692.398,227.867c0,1.806,1.464,3.271,3.27,3.271c1.807,0,4.21-1.877,3.271-5.076
		c-0.509-1.732-1.464,1.596-3.271,1.596C693.862,227.658,692.398,226.062,692.398,227.867z"/>
</g>
<g id="Слой_2">
	<g>
		<defs>
			<path id="SVGID_2_" d="M636.349,123.257c-9.67-5.11-21.67-8.15-34.68-8.15c-12.221,0-23.551,2.68-32.891,7.24
				c-0.92,2.21-1.42,4.55-1.42,6.98c0,2.42,0.5,4.76,1.42,6.97c9.34,4.55,20.67,7.23,32.891,7.23c0.229,0,0.47,0,0.699-0.01
				c1.29,0,2.58-0.04,3.86-0.12c7.73-0.42,15.03-1.92,21.61-4.28c0.2-0.07,0.399-0.15,0.6-0.23c2.771-1.01,5.42-2.19,7.91-3.5
				c0.69-1.95,1.06-3.97,1.06-6.06C637.409,127.227,637.04,125.197,636.349,123.257z"/>
		</defs>
		<clipPath id="SVGID_3_">
			<use xlink:href="#SVGID_2_"  overflow="visible"/>
		</clipPath>
		<path clip-path="url(#SVGID_3_)" fill="#E6C6C6" d="M636.349,123.257c-9.67-5.11-21.67-8.15-34.68-8.15
			c-12.221,0-23.551,2.68-32.891,7.24c-0.92,2.21-1.42,4.55-1.42,6.98c0,2.42,0.5,4.76,1.42,6.97c9.34,4.55,20.67,7.23,32.891,7.23
			c0.229,0,0.47,0,0.699-0.01c1.29,0,2.58-0.04,3.86-0.12c7.73-0.42,15.03-1.92,21.61-4.28c0.2-0.07,0.399-0.15,0.6-0.23
			c2.771-1.01,5.42-2.19,7.91-3.5c0.69-1.95,1.06-3.97,1.06-6.06C637.409,127.227,637.04,125.197,636.349,123.257z"/>
		<circle clip-path="url(#SVGID_3_)" fill="#4F391D" cx="604.565" cy="129.69" r="13.393"/>
		<circle clip-path="url(#SVGID_3_)" fill="#E6C6C6" cx="615.898" cy="122.994" r="6.696"/>
	</g>
</g>
<g id="Слой_3">
</g>
</svg>
